<?xml version="1.0" encoding="utf-8"?>
<!-- Generator: Adobe Illustrator 16.0.0, SVG Export Plug-In . SVG Version: 6.00 Build 0)  -->
<!DOCTYPE svg PUBLIC "-//W3C//DTD SVG 1.1//EN" "http://www.w3.org/Graphics/SVG/1.1/DTD/svg11.dtd">
<svg version="1.1" id="Capa_1" xmlns="http://www.w3.org/2000/svg" xmlns:xlink="http://www.w3.org/1999/xlink" x="0px" y="0px"
	 width="640px" height="480px" viewBox="0 0 640 480" enable-background="new 0 0 640 480" xml:space="preserve">
<g>
	<g>
		<path d="M167.226,278.356c8.071,2.815,16.055,5.589,24.005,8.347c-5.18-9.459-8.672-20.049-10.018-31.42
			c-5.621-47.513,28.304-90.541,75.816-96.161c11.076-1.311,21.92-0.426,32.084,2.213L314.3,129.39
			c-18.941-7.71-40.013-10.932-61.777-8.356c-68.499,8.103-117.501,70.257-109.397,138.755c0.386,3.261,0.901,6.475,1.527,9.644
			c2.764,0.257,6.026,1.227,8.573,2.924C157.226,274.356,162.226,277.356,167.226,278.356z"/>
		<path d="M390.605,230.044c-2.529-21.375-10.361-40.941-21.965-57.401l-25.271,32.053c4.721,9.097,7.871,19.068,9.147,29.854
			c4.65,39.304-17.763,75.538-52.544,90.067c16.077,5.604,32.164,10.327,48.319,14.481
			C378.498,312.902,395.654,272.722,390.605,230.044z"/>
		<path d="M464.811,402.407l-85.73-84.313l-4.597,4.673l-7.186-7.066c20.266-27.664,26.811-61.536,21.508-93.913
			c-1.184-7.229-9.171-25.47-10.57-24.986c-10.64,3.677-21.306,7.402-31.553,12.418c12.674,31.059,6.581,68.009-18.444,93.455
			c-33.547,34.11-88.338,34.567-122.449,1.02c-10.012-9.847-17.467-21.697-21.668-34.146c-0.194-0.575-26.81-6.148-39.569-5.703
			c-0.349,0.013-0.189,4.461,0.127,5.855c0.543,2.396,1.157,4.779,1.842,7.146c5.762,19.9,16.56,38.638,32.375,54.192
			c44.784,44.044,114.414,47.477,163.019,10.472l7.186,7.067l-4.598,4.674l85.731,84.313c9.696,9.535,25.332,9.406,34.867-0.29
			C474.638,427.579,474.508,411.943,464.811,402.407z"/>
		<path d="M388.03,120.005l16.382,0.229l44.276-56.272l-38.587-0.558l-9.547-37.392l-44.376,56.284l4.047,15.875L269.75,212.816
			c-10.552-0.919-21.392,3.22-28.406,12.228c-11.137,14.125-8.723,34.528,5.391,45.569c14.126,11.136,34.529,8.723,45.569-5.392
			c7.024-8.91,8.618-20.428,5.262-30.475L388.03,120.005z"/>
	</g>
</g>
</svg>
